<svg xmlns="http://www.w3.org/2000/svg" width="108" height="72" viewBox="0 0 108 72"><path d="M108,55.64a165.82,165.82,0,0,1-30.6-1.22,8.55,8.55,0,0,0-.06,1.08,6.79,6.79,0,0,1-2.21,5.71,18.38,18.38,0,0,1-6.23,3.95,68.65,68.65,0,0,1-14.58,4A196.89,196.89,0,0,1,16.2,72a88.79,88.79,0,0,1-9.74-1A13.19,13.19,0,0,1,3,70C-.75,68.33-1,65.39,2.41,63.17a15,15,0,0,1,3.53-1.72,82.11,82.11,0,0,1,9-2.53c5.61-1.11,11.28-2,16.93-2.9a2.52,2.52,0,0,1,1.2.12c-3.94.91-7.91,1.71-11.8,2.75C16.65,60.12,12.08,61.5,7.54,63a15.73,15.73,0,0,0-4,2.06C2.1,66,2.24,67,4,67.57a24,24,0,0,0,5.84,1.2c4.93.25,9.89.42,14.83.31a195.35,195.35,0,0,0,27.32-2.47,83.43,83.43,0,0,0,13.75-3.29A20.6,20.6,0,0,0,72,60.14c2.8-2.23,3-4.17,1.07-7.08a15,15,0,0,0-5.11-4.6c-4.12-2.39-8.23-4.84-12.58-6.83-8.19-3.76-16.57-7.16-24.81-10.8-3.85-1.7-7.64-3.54-11.34-5.5A25.8,25.8,0,0,1,14,21.66c-3.9-3.55-3.67-7.41.64-10.55a30.07,30.07,0,0,1,6-3.32A106.68,106.68,0,0,1,47.46.68,61.64,61.64,0,0,1,63.05.35,37.58,37.58,0,0,1,68.3,1.42a5.48,5.48,0,0,1,3.06,2C67.78,1.44,63.8,1.22,59.83,1.07,46.61.58,34.1,3.39,22,8.1a30.61,30.61,0,0,0-6.22,3.31c-4.44,3.08-4.56,6.66-.24,9.89A37,37,0,0,0,23,25.64c7.11,3.11,14.35,6,21.54,9,6.88,2.84,13.89,5.46,20.37,9.06,2.34,1.3,4.6,2.74,6.81,4.23a14.51,14.51,0,0,1,4.49,4.64,2.3,2.3,0,0,0,2,1.23c3.79.31,7.57.77,11.37,1,4.34.26,8.69.31,13,.5C104.42,55.33,106.21,55.51,108,55.64Z" fill="#f7f6fb"/></svg>